<?xml version="1.0" encoding="UTF-8" standalone="no"?>
<!-- Created with Inkscape (http://www.inkscape.org/) -->

<svg
   width="158.30295mm"
   height="162.58492mm"
   viewBox="0 0 158.30295 162.58492"
   version="1.1"
   id="svg5"
   inkscape:version="1.1.2 (0a00cf5339, 2022-02-04)"
   sodipodi:docname="logo.svg"
   xmlns:inkscape="http://www.inkscape.org/namespaces/inkscape"
   xmlns:sodipodi="http://sodipodi.sourceforge.net/DTD/sodipodi-0.dtd"
   xmlns="http://www.w3.org/2000/svg"
   xmlns:svg="http://www.w3.org/2000/svg">
  <sodipodi:namedview
     id="namedview7"
     pagecolor="#ffffff"
     bordercolor="#666666"
     borderopacity="1.0"
     inkscape:pageshadow="2"
     inkscape:pageopacity="0.0"
     inkscape:pagecheckerboard="0"
     inkscape:document-units="mm"
     showgrid="false"
     fit-margin-top="0"
     fit-margin-left="0"
     fit-margin-right="0"
     fit-margin-bottom="0"
     inkscape:zoom="0.70710678"
     inkscape:cx="535.98694"
     inkscape:cy="411.53614"
     inkscape:window-width="1920"
     inkscape:window-height="1029"
     inkscape:window-x="0"
     inkscape:window-y="27"
     inkscape:window-maximized="1"
     inkscape:current-layer="layer1" />
  <defs
     id="defs2" />
  <g
     inkscape:label="Layer 1"
     inkscape:groupmode="layer"
     id="layer1"
     transform="translate(-23.971444,-22.662283)">
    <g
       id="g1125"
       transform="translate(3.4947213,-16.192217)">
      <path
         style="fill:#b9b9b9;fill-opacity:1;stroke-width:0.264583"
         d="m 79.482493,185.82855 v -15.61042 h 1.058333 1.058333 v 2.42095 2.42095 l 0.794713,-1.09707 c 2.213168,-3.05519 6.244333,-4.57764 10.539108,-3.98029 5.06191,0.70405 8.5499,4.41552 9.3576,9.95715 1.29478,8.88348 -5.352052,15.69874 -13.658674,14.00477 -2.437212,-0.49702 -4.150686,-1.50688 -5.85805,-3.45255 l -1.190093,-1.3562 0.07384,6.15178 0.07385,6.15179 -1.124479,-2.2e-4 -1.124479,-2.3e-4 z m 15.669553,5.45531 c 6.972944,-3.33652 6.792024,-15.50929 -0.278829,-18.76042 -0.985604,-0.45318 -1.743943,-0.56888 -3.749058,-0.57202 -2.166961,-0.003 -2.720583,0.0925 -4.015092,0.69518 -3.458485,1.61027 -5.214998,4.34114 -5.450657,8.47421 -0.287393,5.04047 2.072516,9.14362 6.080395,10.57192 2.085017,0.74304 5.3864,0.56096 7.413241,-0.40887 z m -57.209135,2.72872 c -2.194656,-0.37885 -4.482278,-1.6189 -6.055785,-3.28265 -5.128459,-5.42259 -4.330669,-14.95006 1.582498,-18.89872 2.334241,-1.55875 3.933238,-1.95661 7.349856,-1.8288 2.387096,0.0893 3.060726,0.21846 4.458308,0.85477 3.745187,1.70517 6.158872,5.77673 6.158872,10.38918 v 1.93635 H 41.081948 30.727235 l 0.159736,1.1654 c 0.384793,2.80738 2.717131,5.87704 5.410965,7.12155 1.042947,0.48182 1.726492,0.5766 4.158516,0.5766 3.384726,0 4.591442,-0.41234 6.585321,-2.25024 l 1.200692,-1.10676 0.799457,0.56927 c 0.76137,0.54214 0.779926,0.59907 0.38949,1.19495 -0.594076,0.90668 -2.923322,2.43279 -4.624278,3.0298 -1.791227,0.6287 -4.899833,0.8684 -6.864223,0.5293 z M 49.236677,179.7402 c -0.355299,-2.99994 -2.500961,-5.9999 -5.175963,-7.23678 -1.784144,-0.82496 -5.962833,-0.80245 -7.816518,0.0421 -2.963197,1.35006 -4.989193,4.04929 -5.354506,7.13379 l -0.164237,1.38673 h 9.334124 9.334124 z m 12.518733,14.15824 c -2.262674,-0.51331 -4.597731,-1.69651 -6.151562,-3.11708 -0.691224,-0.63194 -1.256771,-1.23665 -1.256771,-1.3438 0,-0.10715 0.327422,-0.47939 0.727604,-0.82722 l 0.727604,-0.6324 1.190625,1.13194 c 2.263579,2.152 4.645107,3.06867 7.972499,3.06867 3.764846,0 5.768858,-0.75283 7.059887,-2.65213 0.5035,-0.74073 0.602248,-1.16605 0.507326,-2.18515 -0.216869,-2.32838 -1.427221,-3.02518 -8.175916,-4.70688 -4.630563,-1.15389 -6.609945,-1.86771 -7.587983,-2.73647 -1.705064,-1.51455 -2.142624,-4.38935 -0.972092,-6.38672 2.763398,-4.71538 13.045445,-4.96522 17.437928,-0.42372 l 1.028107,1.06299 -0.763524,0.6629 -0.763524,0.6629 -1.058333,-1.02814 c -0.582084,-0.56548 -1.772709,-1.36161 -2.645834,-1.76918 -1.450691,-0.67717 -1.849718,-0.74087 -4.630208,-0.73921 -3.193849,0.002 -4.608401,0.38445 -5.977736,1.61657 -1.36783,1.23075 -1.564341,3.027 -0.473038,4.32394 0.980247,1.16496 1.75728,1.49937 5.584073,2.40325 6.916925,1.63375 7.955433,2.01668 9.554379,3.52305 1.252427,1.17991 1.631072,2.04794 1.631072,3.73919 0,3.87082 -3.312819,6.31362 -8.978003,6.62018 -1.469501,0.0795 -2.871681,-0.0146 -3.98658,-0.26748 z m 51.46146,0.2281 c -2.77672,-0.42566 -5.01884,-1.6607 -6.2418,-3.43821 -0.7227,-1.0504 -0.87396,-1.54243 -0.97943,-3.18589 -0.16237,-2.53007 0.35651,-3.93813 1.97681,-5.36438 2.32639,-2.04776 5.08742,-2.65456 12.09223,-2.65752 l 4.73115,-0.002 -0.12677,-1.97531 c -0.0955,-1.48843 -0.27802,-2.19604 -0.74041,-2.87086 -2.15233,-3.14113 -8.22624,-3.7418 -13.24231,-1.30959 -2.25313,1.09251 -2.01199,1.12483 -2.9776,-0.3992 -0.15725,-0.24818 0.38563,-0.62151 1.98437,-1.36466 3.0142,-1.40108 4.57865,-1.69742 8.22445,-1.55787 2.78136,0.10646 3.2012,0.19202 4.79698,0.97763 1.96015,0.96498 3.37959,2.5465 3.92285,4.37081 0.2253,0.75658 0.32567,3.69654 0.33065,9.6853 l 0.007,8.59896 -0.95998,0.0802 c -1.09237,0.0913 -1.28991,-0.27516 -1.20447,-2.23431 l 0.0478,-1.09577 -0.98027,0.88588 c -1.19667,1.08145 -2.81657,1.93136 -4.57598,2.40086 -1.46532,0.39102 -4.85308,0.64484 -6.08542,0.45593 z m 7.11874,-2.74018 c 1.02852,-0.39465 2.04574,-1.0676 2.97656,-1.96917 l 1.41407,-1.36963 v -3.35847 -3.35846 l -4.16719,0.005 c -7.2269,0.009 -10.14942,0.74106 -11.78657,2.95153 -0.64981,0.87736 -0.88045,3.01614 -0.46199,4.28409 0.39588,1.19953 2.13922,2.71209 3.70765,3.21683 1.82067,0.58592 6.30797,0.36901 8.31747,-0.40204 z m 20.84401,2.61308 c -2.88593,-0.48013 -6.17619,-2.69212 -7.58809,-5.10134 -2.15585,-3.67867 -2.42917,-8.76278 -0.67315,-12.52135 3.107,-6.65021 12.39516,-8.6919 18.29263,-4.02102 1.52463,1.20754 1.7402,1.73866 1.01776,2.50766 l -0.58865,0.62658 -1.21996,-1.08544 c -0.67098,-0.597 -1.87481,-1.39557 -2.67517,-1.77461 -1.26729,-0.60017 -1.79688,-0.68891 -4.10104,-0.6872 -2.4412,0.002 -2.78144,0.068 -4.39911,0.8564 -2.04159,0.99495 -3.44289,2.42864 -4.42867,4.53101 -0.6319,1.34764 -0.69722,1.78444 -0.69722,4.66196 0,2.89318 0.0631,3.3097 0.71124,4.69259 0.86495,1.84554 2.79737,3.83006 4.58043,4.70388 1.14584,0.56155 1.69476,0.64896 4.10104,0.65301 2.44676,0.004 2.95348,-0.0776 4.24833,-0.68487 0.80862,-0.37925 1.98886,-1.18292 2.62276,-1.78594 0.63389,-0.60301 1.23147,-1.09638 1.32793,-1.09638 0.0965,0 0.45714,0.2999 0.80148,0.66643 l 0.62608,0.66644 -1.36782,1.28417 c -2.77364,2.60404 -6.41242,3.60317 -10.5908,2.90802 z m 23.56516,-0.10546 c -3.37561,-0.73329 -6.0863,-2.89678 -7.6082,-6.07235 -3.77739,-7.88186 0.38522,-16.65105 8.48534,-17.87568 7.26923,-1.09901 13.06303,3.97463 13.07618,11.45083 l 0.003,1.78593 H 168.27832 157.8554 l 0.25019,1.12448 c 0.68491,3.07838 2.50832,5.54481 5.10165,6.90074 1.51745,0.7934 1.75935,0.83833 4.51379,0.83833 2.58742,0 3.07446,-0.0769 4.38851,-0.69317 0.81295,-0.38123 1.91031,-1.12537 2.43857,-1.65364 0.52827,-0.52827 1.02919,-0.96049 1.11315,-0.96049 0.084,0 0.47488,0.30539 0.86871,0.67865 l 0.71606,0.67864 -1.19062,1.05721 c -1.58412,1.4066 -3.3878,2.30841 -5.52158,2.76069 -2.14524,0.45471 -3.62682,0.44955 -5.78905,-0.0202 z m 11.7129,-14.0748 c -0.7881,-5.25539 -4.50449,-8.29764 -9.70122,-7.94144 -4.58127,0.314 -7.80187,3.22363 -8.63281,7.79924 l -0.25225,1.38907 h 9.38663 9.38663 z M 134.88803,139.9235 c 0.0136,-10.25913 -0.044,-18.65303 -0.12789,-18.65312 -0.0839,-1e-4 -1.08954,0.9821 -2.23474,2.18264 -1.1452,1.20055 -9.197,9.32891 -17.89287,18.06303 L 98.821843,157.39627 59.651126,118.2937 C 38.107234,96.787278 20.480412,79.133914 20.480412,79.063996 c 0,-0.06992 17.322844,-0.127122 38.495209,-0.127122 h 38.495212 l 0.06781,-19.961603 0.06781,-19.961603 39.292877,39.242496 39.29287,39.242496 -9.99902,10.02171 c -5.49947,5.51195 -14.72152,14.75445 -20.49344,20.5389 -5.77193,5.78446 -10.57135,10.51719 -10.66539,10.51719 -0.094,0 -0.15989,-8.39383 -0.14632,-18.65296 z m -19.05016,-3.50589 17.0455,-17.13178 -17.04315,-0.0681 c -9.37373,-0.0374 -24.752441,-0.0374 -34.174915,0 l -17.13177,0.0681 17.062841,17.13178 c 9.384561,9.42247 17.092797,17.13177 17.129413,17.13177 0.03661,0 7.737051,-7.7093 17.112081,-17.13177 z m 39.22861,-36.26811 -17.37566,-17.375665 0.003,34.792455 0.003,34.79246 17.37285,-17.41679 17.37284,-17.4168 -17.37566,-17.37566 z m -57.592321,-0.046 c 0,-8.87677 -0.03013,-16.139582 -0.06696,-16.139582 -0.03683,0 -7.32904,7.262812 -16.204916,16.139582 l -16.137955,16.13959 h 16.204913 16.204917 z m 37.322001,-0.0932 c 0.0101,-8.855243 -0.0245,-16.143361 -0.0769,-16.195812 -0.12304,-0.123041 -6.4635,6.14461 -20.97116,20.730352 l -11.63965,11.70229 16.33467,-0.0682 16.33468,-0.0682 z m -66.293875,8.82441 7.140074,-7.14375 H 65.391592 55.140827 v 4.16305 4.16305 l 2.972247,2.9807 c 1.634736,1.63939 3.034546,2.9807 3.11069,2.9807 0.07614,0 3.35148,-3.21468 7.278521,-7.14375 z M 117.51471,62.600688 100.38549,45.46708 l -0.004,33.734377 c -0.002,18.553908 -0.0761,34.032033 -0.16423,34.395833 -0.10368,0.4282 5.93823,-5.42591 17.1333,-16.600766 L 134.64394,79.734299 Z M 53.02416,94.811875 V 81.847291 H 39.994444 26.964728 l 12.962558,12.964584 c 7.129406,7.130525 12.992779,12.964585 13.029715,12.964585 0.03694,0 0.06716,-5.83406 0.06716,-12.964585 z m 33.337499,-3.836459 9.125249,-9.128125 H 75.313866 55.140827 v 3.042708 3.042709 h 10.980208 10.980208 v 1.058333 1.058334 H 66.121035 55.140827 v 1.852083 1.852083 h 7.805208 7.805208 v 1.058334 1.058333 h -7.805208 -7.805208 v 1.852084 1.852083 h 10.980208 c 7.14375,0 10.980208,0.09245 10.980208,0.264583 0,0.145521 0.03041,0.264582 0.06759,0.264582 0.03717,0 4.173945,-4.107655 9.192831,-9.128124 z"
         id="path1139" />
      <path
         style="fill:#a3a3a3;fill-opacity:1;stroke-width:0.264583"
         d="m 79.482493,185.82855 v -15.61042 h 1.058333 1.058333 v 2.40501 2.40501 l 1.035386,-1.30986 c 1.173766,-1.48493 2.937836,-2.66641 5.007573,-3.35381 1.090896,-0.3623 2.028698,-0.4464 4.116361,-0.36912 2.399591,0.0888 2.898396,0.19598 4.435864,0.95287 8.237977,4.05554 8.305087,18.10298 0.105185,22.01643 -3.841036,1.83316 -8.564766,1.51042 -11.820094,-0.80758 -0.440338,-0.31355 -1.268539,-1.16205 -1.840446,-1.88557 l -1.039829,-1.31548 v 6.24147 6.24146 h -1.058333 -1.058333 z m 14.926235,5.80661 c 4.178628,-1.56343 6.560282,-6.3378 5.757452,-11.54167 -0.762185,-4.94046 -3.737226,-7.90368 -8.260098,-8.22729 -6.139802,-0.4393 -10.312619,3.64586 -10.30406,10.08761 0.0061,4.59477 2.085134,8.07932 5.709441,9.56931 2.065327,0.84908 5.003395,0.89546 7.097265,0.11204 z m -55.93665,2.38537 c -6.621124,-0.90713 -10.907597,-7.1875 -9.7959,-14.35257 0.579487,-3.73488 3.025325,-7.11107 6.318812,-8.72238 1.708209,-0.83573 1.853375,-0.85974 5.196879,-0.85974 3.177786,0 3.554735,0.054 4.952489,0.7091 3.893479,1.82487 6.280827,5.85151 6.289162,10.60766 l 0.0031,1.79176 -10.120312,-0.0118 c -5.566171,-0.006 -10.253769,-0.009 -10.416882,-0.006 -0.439334,0.009 0.03532,2.24301 0.816682,3.84417 0.853769,1.74954 2.527993,3.40374 4.351117,4.29908 1.340412,0.65828 1.75108,0.72623 4.389187,0.72623 2.588794,0 3.071229,-0.0763 4.365625,-0.6904 0.800365,-0.37971 1.909556,-1.13722 2.464869,-1.68335 l 1.009661,-0.99295 0.643985,0.60499 c 0.354192,0.33275 0.643985,0.69727 0.643985,0.81005 0,0.33855 -1.646703,1.80536 -2.778125,2.47462 -2.061734,1.21958 -5.568574,1.83024 -8.334375,1.45131 z m 10.958715,-13.68209 c -0.759645,-3.37301 -1.476004,-4.84163 -3.085163,-6.3249 -3.698576,-3.40923 -10.769091,-2.76459 -13.674909,1.24678 -0.875662,1.20881 -1.712588,3.27489 -1.949867,4.81354 l -0.153007,0.99219 h 9.513406 9.513405 z m 13.118367,13.68712 c -2.919151,-0.46102 -5.290846,-1.66244 -7.252824,-3.67407 l -1.035116,-1.06131 0.638241,-0.53139 c 0.351033,-0.29226 0.740611,-0.53535 0.865727,-0.54019 0.125119,-0.005 0.869656,0.5781 1.654529,1.29543 1.996607,1.82479 3.787834,2.47679 7.163345,2.60742 1.948606,0.0754 3.098255,-0.0128 4.14959,-0.31845 4.554657,-1.32407 5.295799,-5.8681 1.241822,-7.61373 -0.664184,-0.286 -3.172137,-0.99368 -5.573231,-1.57263 -6.502505,-1.56788 -8.216802,-2.4974 -9.003794,-4.88201 -0.442555,-1.34096 -0.195673,-3.35011 0.544372,-4.43014 1.495957,-2.1832 4.452422,-3.35094 8.483872,-3.35094 3.868084,0 6.848173,1.09066 8.947206,3.27452 l 0.901864,0.93831 -0.637281,0.53061 c -0.751036,0.62533 -1.192747,0.68244 -1.484029,0.19188 -0.116372,-0.19598 -0.764424,-0.77463 -1.440117,-1.28589 -1.737646,-1.31477 -4.064328,-1.89365 -7.039403,-1.75141 -3.914511,0.18716 -6.412812,1.79882 -6.41545,4.13864 -0.0026,2.31458 1.51393,3.27457 7.181313,4.54585 6.27241,1.40699 9.012721,2.77116 9.917749,4.9372 0.562203,1.34554 0.453671,3.48615 -0.238733,4.70861 -1.623005,2.86544 -6.823638,4.59321 -11.569652,3.84369 z m 50.30278,-0.0149 c -4.43345,-0.77923 -6.91112,-3.32184 -6.91112,-7.09224 0,-2.06211 0.6501,-3.58709 2.05506,-4.82065 2.21584,-1.94554 5.21786,-2.59665 12.03401,-2.61004 l 4.69635,-0.009 -0.006,-1.65365 c -0.008,-2.28064 -0.68248,-3.67959 -2.25476,-4.67669 -2.9697,-1.88333 -8.02452,-1.77549 -12.05106,0.2571 -1.69809,0.85719 -2.03731,0.81519 -2.64913,-0.32802 -0.23098,-0.43158 -0.0272,-0.6031 1.66808,-1.40374 3.01053,-1.42183 4.85615,-1.79268 8.26112,-1.65997 3.53149,0.13764 5.41576,0.76767 6.98294,2.33485 2.1817,2.1817 2.33706,3.17456 2.22313,14.20772 l -0.0744,7.2099 h -0.91774 -0.91774 v -1.75058 -1.75058 l -1.04641,0.94537 c -0.57552,0.51995 -1.50184,1.17771 -2.05848,1.46169 -2.40785,1.22839 -6.34359,1.81164 -9.03399,1.33876 z m 7.50199,-2.622 c 0.99193,-0.38627 2.10076,-1.10734 2.97657,-1.93563 l 1.39574,-1.32004 v -3.43119 -3.4312 l -5.4901,0.12686 c -5.83281,0.13478 -7.31088,0.39322 -9.06104,1.58432 -1.37167,0.93351 -1.92672,1.87136 -2.06021,3.48105 -0.15165,1.82865 0.57159,3.42839 2.00614,4.43739 1.4965,1.05259 2.53273,1.26572 5.74167,1.18093 2.28712,-0.0604 3.24897,-0.20874 4.49123,-0.69249 z m 21.18083,2.62434 c -4.62031,-0.77245 -8.10887,-3.90966 -9.2594,-8.32687 -0.49796,-1.91179 -0.52087,-5.61946 -0.0457,-7.39826 0.85829,-3.21309 3.13092,-5.91489 6.1726,-7.33827 1.58436,-0.74141 2.10681,-0.84621 4.70266,-0.9434 2.48175,-0.0929 3.15868,-0.0252 4.50779,0.45066 1.79729,0.634 4.22052,2.20422 4.82473,3.12635 0.3679,0.56148 0.36173,0.66432 -0.0684,1.13956 -0.6417,0.70907 -0.82429,0.67035 -2.04671,-0.43403 -0.58225,-0.52603 -1.72778,-1.27018 -2.54561,-1.65365 -1.29588,-0.60763 -1.82695,-0.69722 -4.13279,-0.69722 -2.31211,0 -2.83523,0.0888 -4.14738,0.7039 -2.10688,0.98767 -3.70518,2.55414 -4.61418,4.52229 -0.70729,1.53139 -0.76344,1.88652 -0.76344,4.82798 0,2.88505 0.0643,3.31212 0.7039,4.67655 0.94135,2.00808 2.6,3.75178 4.41803,4.6446 1.35702,0.66641 1.75711,0.73291 4.40307,0.73183 3.37498,-0.001 4.34099,-0.34986 6.70685,-2.41946 l 1.4052,-1.22923 0.67583,0.67582 0.67583,0.67583 -1.29228,1.25851 c -1.57232,1.53124 -4.00026,2.71314 -6.23838,3.03677 -1.90362,0.27527 -2.22936,0.27283 -4.04224,-0.0303 z m 24.59877,0.10553 c -4.80497,-0.58933 -8.48737,-3.71891 -9.75445,-8.29003 -0.96611,-3.48536 -0.77711,-6.47663 0.59438,-9.40744 1.96291,-4.19464 5.59818,-6.46756 10.34409,-6.46756 2.69794,0 4.60091,0.50064 6.4856,1.70626 3.06222,1.95888 4.89809,5.68984 4.89809,9.95419 v 1.58023 l -10.3849,-0.0133 -10.38489,-0.0133 0.0861,0.73241 c 0.30506,2.59519 1.99467,5.30945 4.22557,6.78815 1.77982,1.1797 3.62931,1.59287 6.43781,1.43819 2.48055,-0.13662 4.23512,-0.85171 5.99836,-2.4447 l 0.98613,-0.8909 0.7543,0.64882 0.7543,0.64882 -1.15462,1.0516 c -2.50071,2.27762 -6.29077,3.41957 -9.88586,2.97864 z m 10.36485,-14.20615 c -0.67104,-4.89578 -4.18497,-8.1068 -8.87154,-8.1068 -5.16461,0 -8.8543,3.16419 -9.64141,8.26823 l -0.15301,0.99219 h 9.41204 9.41204 z m -41.52913,-39.98912 c 0.0311,-10.25921 -0.0399,-18.6531 -0.15778,-18.6531 -0.11787,0 -3.87247,3.7207 -8.34356,8.26823 -4.47108,4.54753 -12.52258,12.67674 -17.89222,18.06492 L 98.81272,157.4 59.64472,118.23456 20.476723,79.069116 l 38.497054,-0.06703 38.497056,-0.06703 0.06781,-19.971966 0.06781,-19.971968 39.224477,39.214276 c 21.57346,21.567851 39.22448,39.220072 39.22448,39.227162 0,0.0967 -40.91562,41.14755 -41.01042,41.14598 -0.0728,-0.001 -0.10685,-8.39608 -0.0757,-18.65528 z m -19.0661,-3.44343 c 9.29109,-9.38822 16.92265,-17.15705 16.95904,-17.26406 0.0364,-0.10702 -12.40565,-0.16833 -27.64896,-0.13626 -15.243313,0.0321 -30.691331,0.0618 -34.328933,0.0661 l -6.613819,0.008 17.19639,17.19792 c 9.458015,9.45886 17.274467,17.19792 17.369895,17.19792 0.09543,0 7.775307,-7.68128 17.066387,-17.0695 z m 39.18378,-36.30994 -17.39611,-17.396105 v 34.792205 34.79221 l 17.39611,-17.3961 17.3961,-17.39611 z M 97.474159,99.96703 V 83.690934 L 81.400722,99.856125 c -8.840391,8.890855 -16.123047,16.215095 -16.183681,16.276095 -0.06063,0.061 7.172415,0.11091 16.073437,0.11091 h 16.183681 z m 37.537661,-0.128072 c -0.0178,-9.022292 -0.10657,-16.404167 -0.19728,-16.404167 -0.0907,0 -4.72642,4.613672 -10.30157,10.252605 -5.57514,5.638932 -12.89687,13.020804 -16.2705,16.404164 l -6.13388,6.15157 h 16.4678 16.46779 z m -66.630476,9.113902 c 3.85006,-3.86413 7.049716,-7.07881 7.110351,-7.14375 0.06063,-0.0649 -4.493508,-0.11807 -10.120312,-0.11807 H 55.140827 v 4.16305 4.16305 l 2.972247,2.9807 c 1.634736,1.63939 3.038827,2.9807 3.120205,2.9807 0.08138,0 3.298007,-3.16155 7.148065,-7.02568 z M 118.63596,95.783279 c 8.66117,-8.706303 15.80197,-15.884605 15.86845,-15.951788 0.12243,-0.123701 -33.87355,-34.232211 -34.11906,-34.232011 -0.0732,6e-5 -0.13307,15.407136 -0.13307,34.237948 v 34.237842 l 1.31806,-1.23118 c 0.72493,-0.67714 8.40446,-8.35451 17.06562,-17.060811 z M 53.02416,94.696413 V 81.616368 l -11.840103,0.09362 C 34.672,81.761478 28.808627,81.813435 28.154341,81.82545 l -1.189613,0.02184 12.962558,12.964584 c 7.129406,7.130526 12.992779,12.964586 13.029715,12.964586 0.03694,0 0.06716,-5.88602 0.06716,-13.080048 z m 33.455368,-3.838863 9.24316,-9.245992 -20.224783,0.113524 -20.224786,0.113528 -0.07454,3.047047 -0.07454,3.047051 h 10.988603 10.988606 v 1.058333 1.058334 H 66.121035 55.140827 v 1.852083 1.852083 h 7.805208 7.805208 v 1.058334 1.058333 h -7.805208 -7.805208 v 1.852084 1.852083 h 10.980208 c 7.14375,0 10.980208,0.09245 10.980208,0.264583 0,0.145521 0.0304,0.264582 0.06756,0.264582 0.03716,0 4.226986,-4.160696 9.310721,-9.24599 z"
         id="path1137" />
      <path
         style="fill:#8c8c8c;fill-opacity:1;stroke-width:0.264583"
         d="m 79.482493,185.82855 v -15.61042 h 1.058333 1.058333 v 2.43337 2.43338 l 0.807093,-1.09748 c 1.02924,-1.39955 3.604228,-3.12323 5.480672,-3.66873 2.234567,-0.6496 6.094335,-0.41829 8.046076,0.48219 4.54296,2.09601 7.10979,7.3678 6.32715,12.99478 -0.90553,6.51051 -4.955481,10.23499 -11.12939,10.23499 -3.824105,0 -6.43645,-1.15894 -8.501721,-3.77171 l -1.02988,-1.30289 v 6.24147 6.24146 h -1.058333 -1.058333 z m 14.81139,5.90482 c 1.599684,-0.51664 3.676933,-2.26094 4.630756,-3.88851 1.346941,-2.29838 1.769761,-5.82834 1.059161,-8.84245 -0.744535,-3.15804 -2.092976,-4.97649 -4.607316,-6.21323 -1.599518,-0.78676 -1.931427,-0.85126 -4.380548,-0.85126 -2.31418,0 -2.834266,0.088 -4.10511,0.69449 -1.839169,0.87773 -3.498461,2.54008 -4.432311,4.4405 -0.675539,1.37474 -0.727064,1.71437 -0.727064,4.79245 0,3.2079 0.02744,3.3686 0.866275,5.07251 1.071583,2.1767 3.13088,4.14584 4.976016,4.75818 1.75021,0.58083 4.981696,0.59878 6.720141,0.0373 z m -31.528506,2.26127 c -2.974329,-0.37394 -5.069731,-1.37895 -7.290889,-3.49691 l -1.121551,-1.06944 0.572358,-0.60925 c 0.314796,-0.33508 0.670528,-0.60924 0.790516,-0.60924 0.119989,0 0.708081,0.47545 1.306875,1.05656 2.359406,2.28973 6.140548,3.38234 10.019509,2.89528 2.095558,-0.26313 3.49178,-0.88958 4.612835,-2.06967 0.603629,-0.63542 0.797095,-1.12079 0.889135,-2.23069 0.107223,-1.29296 0.04447,-1.50188 -0.708718,-2.35972 -1.056108,-1.20284 -2.056863,-1.59482 -7.627111,-2.98741 -5.561979,-1.39053 -7.198826,-2.09289 -8.119383,-3.48394 -1.496001,-2.26061 -1.083852,-5.04072 1.021287,-6.889 1.615053,-1.41798 3.243307,-1.95941 6.367938,-2.11744 4.293333,-0.21714 7.158032,0.66648 9.530511,2.93972 l 1.266298,1.21332 -0.679124,0.5342 c -0.37352,0.29381 -0.732988,0.5342 -0.798822,0.5342 -0.06583,0 -0.551683,-0.40741 -1.079669,-0.90537 -0.527984,-0.49795 -1.645968,-1.24169 -2.484406,-1.65275 -1.425739,-0.699 -1.738548,-0.74738 -4.831723,-0.74723 -3.085499,1.5e-4 -3.398694,0.0483 -4.670253,0.71795 -1.788244,0.94175 -2.473764,1.83408 -2.472507,3.2184 0.0013,1.46411 0.755766,2.60866 2.151565,3.26412 0.635106,0.29825 3.059737,0.98027 5.38807,1.5156 7.593642,1.74595 9.921875,3.38258 9.921875,6.97459 0,1.67197 -0.885542,3.35796 -2.352847,4.47961 -2.031603,1.55301 -6.016924,2.3352 -9.601769,1.88451 z m 78.783093,0.0127 c -4.61015,-0.68743 -8.36431,-4.27573 -9.41531,-8.99934 -0.47416,-2.13106 -0.22523,-6.07685 0.50197,-7.95675 1.22593,-3.16916 4.17579,-5.79222 7.53708,-6.70207 1.24483,-0.33697 2.37032,-0.43177 4.18404,-0.35244 2.19893,0.0962 2.70582,0.21838 4.4563,1.07435 1.86341,0.91119 2.81672,1.60465 3.66531,2.66623 0.31751,0.39721 0.30301,0.53041 -0.10715,0.98363 -0.64348,0.71103 -0.82541,0.67264 -2.04836,-0.43222 -0.58225,-0.52604 -1.72778,-1.27018 -2.54561,-1.65365 -1.29588,-0.60762 -1.82695,-0.69721 -4.13279,-0.69721 -2.34427,0 -2.82678,0.0845 -4.23333,0.74143 -2.00971,0.93863 -3.39147,2.26787 -4.45496,4.28565 -0.81015,1.53711 -0.83671,1.69267 -0.83671,4.90036 0,3.20923 0.0271,3.36801 0.86798,5.07598 1.07032,2.17413 2.94591,3.93298 5.0318,4.71862 1.25983,0.47452 1.92297,0.55076 4.02209,0.46243 3.00275,-0.12635 4.26569,-0.61833 6.29561,-2.45247 l 1.40081,-1.2657 0.6553,0.61562 0.65531,0.61563 -1.22809,1.24683 c -2.57546,2.61478 -6.23222,3.72737 -10.27129,3.1251 z m 24.29458,0.0292 c -5.55504,-0.83564 -9.15842,-4.63969 -9.89453,-10.44554 -0.694,-5.47375 1.71185,-10.24642 6.31088,-12.51939 1.96899,-0.97313 2.03555,-0.98578 5.18333,-0.98578 3.03323,0 3.27517,0.041 4.96161,0.83989 0.97785,0.46324 2.32165,1.38864 2.99657,2.06356 2.06221,2.06222 3.44424,5.79915 3.24848,8.78377 l -0.0804,1.22655 -10.39136,0.0254 -10.39135,0.0254 0.15738,0.79375 c 0.58206,2.93564 1.92455,5.18318 3.96072,6.63084 1.96671,1.39828 3.46474,1.78183 6.43754,1.64827 2.91621,-0.13103 4.29003,-0.64871 6.21261,-2.34103 l 1.16272,-1.02347 0.59369,0.63196 c 0.66278,0.7055 0.58026,0.97226 -0.61583,1.99087 -2.51498,2.14179 -6.36544,3.17942 -9.85202,2.65494 z m 2.37786,-12.96759 8.43737,-0.003 -0.1591,-1.34334 c -0.3466,-2.92653 -2.23724,-5.70979 -4.8094,-7.08003 -1.19111,-0.63453 -1.5997,-0.70475 -4.10104,-0.70475 -2.43968,0 -2.95688,0.0838 -4.24541,0.68821 -1.99897,0.9376 -3.19322,2.05009 -4.15067,3.86654 -0.68924,1.30762 -1.3935,3.64302 -1.3935,4.62102 0,0.18346 0.35612,0.22731 0.99218,0.12218 0.54571,-0.0902 4.78901,-0.16531 9.42957,-0.16691 z M 36.507493,193.5938 c -3.002411,-0.92153 -5.918352,-3.69202 -7.059021,-6.70692 -0.302814,-0.80036 -0.635698,-2.33159 -0.739742,-3.40273 -0.555593,-5.71983 1.681241,-10.13668 6.286088,-12.41253 1.972272,-0.97474 2.030314,-0.98572 5.183329,-0.9798 2.693413,0.005 3.423048,0.0997 4.697278,0.60953 3.803986,1.52193 6.561235,6.01207 6.561235,10.68487 v 1.53191 l -5.886979,0.0414 c -3.237838,0.0228 -7.865524,0.009 -10.283745,-0.0314 -2.694885,-0.0446 -4.459372,0.0286 -4.558506,0.18897 -0.28108,0.45479 0.609489,3.3163 1.491997,4.79395 1.01548,1.70031 2.610946,2.98873 4.644791,3.75091 1.228296,0.46031 1.944762,0.54441 4.009109,0.47059 2.909385,-0.10403 4.716196,-0.78426 6.465054,-2.43396 l 1.041099,-0.98206 0.669425,0.66942 0.669424,0.66943 -1.00548,1.0297 c -1.116216,1.14311 -3.188922,2.25695 -4.959442,2.66513 -1.704959,0.39306 -5.718781,0.30619 -7.225914,-0.1564 z M 49.42374,180.20615 c -0.53021,-3.08874 -1.804263,-5.40074 -3.774647,-6.84978 -3.018867,-2.2201 -8.078402,-2.08189 -11.381558,0.3109 -1.949201,1.412 -2.938447,3.20713 -3.603387,6.53888 l -0.171615,0.8599 h 9.539407 9.539408 z m 62.26766,13.5366 c -2.16878,-0.51096 -4.23012,-2.01976 -5.12582,-3.75185 -0.58868,-1.13837 -0.76447,-3.64438 -0.35759,-5.09761 0.3989,-1.42473 2.00587,-3.20327 3.55788,-3.93774 2.23955,-1.05984 3.60688,-1.26256 9.46288,-1.40295 l 5.7473,-0.13778 -0.15112,-1.62179 c -0.19207,-2.0611 -1.03745,-3.83537 -2.19197,-4.6004 -2.93438,-1.94446 -8.2505,-1.85048 -12.32559,0.2179 l -1.58657,0.80529 -0.47264,-0.58369 c -0.25996,-0.32103 -0.43491,-0.71449 -0.3888,-0.87437 0.14741,-0.511 3.43939,-1.97919 5.45408,-2.43246 2.36969,-0.53314 6.67111,-0.39129 8.55385,0.28208 1.53925,0.55052 3.48501,2.23075 4.25908,3.67787 0.56551,1.05722 0.58678,1.38718 0.66316,10.28653 l 0.0789,9.19427 h -0.9388 -0.93881 v -1.73555 -1.73553 l -1.25677,1.04441 c -1.56649,1.30182 -2.43651,1.74307 -4.48169,2.27303 -1.74884,0.45317 -5.88784,0.52452 -7.56096,0.13034 z m 7.3463,-1.92386 c 1.91197,-0.51074 3.36313,-1.32103 4.56904,-2.55124 1.2374,-1.26234 1.38408,-1.8266 1.38408,-5.32426 v -2.61276 h -4.67468 c -5.07042,0 -7.56628,0.30392 -9.21594,1.12223 -2.17493,1.07887 -3.04271,2.34271 -3.04271,4.43142 0,2.41852 1.33271,4.14484 3.79406,4.91462 1.4503,0.45357 5.52059,0.4649 7.18615,0.02 z m 15.99826,-52.05607 -0.009,-18.88949 -18.09786,18.25626 -18.097865,18.25625 -39.043087,-39.02571 C 38.314391,96.89599 20.744995,79.244973 20.744995,79.135647 c 0,-0.109325 17.264062,-0.198773 38.364582,-0.198773 H 97.474159 V 58.895687 38.8545 l 39.247081,39.157335 c 21.5859,21.536532 39.26183,39.216865 39.27986,39.289625 0.018,0.0728 -9.18973,9.40647 -20.46167,20.74157 l -20.49444,20.60927 -0.009,-18.88948 z m -19.06398,-3.33208 c 9.32599,-9.41525 16.95634,-17.2147 16.95634,-17.33211 0,-0.1174 -15.41859,-0.21087 -34.263536,-0.20769 -18.844948,0.003 -34.263541,0.093 -34.263541,0.19957 0,0.24195 34.1964,34.45887 34.438197,34.45887 0.0969,0 7.80654,-7.70339 17.13254,-17.11864 z m 39.1816,-1.53474 17.32894,-17.33046 -17.39585,-17.39586 -17.39585,-17.395845 -0.0202,34.263295 c -0.0111,18.84481 -0.0601,34.47165 -0.10888,34.72631 -0.0488,0.25466 -0.01,0.46302 0.0872,0.46302 0.0967,0 7.97381,-7.79871 17.50473,-17.33046 z m -58.407026,-18.62897 0.727605,-0.0239 -0.0047,-16.338026 -0.0047,-16.338022 -16.200988,16.271876 -16.200989,16.271872 2.910416,0.14373 c 2.279372,0.11256 25.421446,0.12259 28.773436,0.0125 z m 37.467876,0.11647 0.83056,-0.18242 V 99.817935 c 0,-9.383176 -0.10051,-16.383144 -0.23524,-16.383144 -0.12938,0 -7.52433,7.35211 -16.43323,16.338022 l -16.19799,16.338017 1.55042,0.1323 c 2.51733,0.21479 29.5793,0.3394 30.48548,0.14037 z m -65.654239,-7.42907 c 4.004562,-4.00878 7.237106,-7.31277 7.183432,-7.34219 -0.05367,-0.0294 -4.71126,-0.0161 -10.350192,0.0297 l -10.252604,0.0832 v 4.11054 4.11054 l 2.976562,3.13623 c 1.63711,1.72492 3.018237,3.14175 3.069172,3.1485 0.05094,0.007 3.369069,-3.26764 7.37363,-7.27642 z m 46.508759,-9.427542 c 7.42156,-7.475562 14.85747,-14.993052 16.52425,-16.705534 l 3.03051,-3.113601 -17.05265,-17.05419 c -9.37896,-9.379805 -17.13543,-17.054191 -17.23659,-17.054191 -0.10117,0 -0.17735,15.417117 -0.1693,34.26026 l 0.0147,34.260258 0.69769,-0.50054 c 0.38372,-0.27529 6.76987,-6.6169 14.19143,-14.092462 z M 53.02416,94.679583 V 81.582707 H 39.862142 26.700124 l 13.09487,13.096876 c 7.202178,7.203277 13.125087,13.096877 13.162018,13.096877 0.03693,0 0.06715,-5.8936 0.06715,-13.096877 z m 33.469791,-3.836458 9.257582,-9.260418 H 75.446179 55.140827 v 3.175001 3.175 h 10.980208 10.980208 v 1.058333 1.058334 H 66.121035 55.140827 v 1.852083 1.852083 h 7.805208 7.805208 v 1.058334 1.058333 h -7.805208 -7.805208 v 1.852084 1.852083 h 10.980208 c 7.14375,0 10.980208,0.09245 10.980208,0.264583 0,0.145521 0.0304,0.264582 0.06756,0.264582 0.03716,0 4.233473,-4.167186 9.325144,-9.260415 z"
         id="path1135" />
      <path
         style="fill:#767676;fill-opacity:1;stroke-width:0.264583"
         d="m 79.546524,185.89469 0.06826,-15.54427 0.992188,-0.0821 0.992187,-0.0821 0.0084,2.46336 0.0084,2.46337 0.57817,-0.79375 c 1.010295,-1.387 2.39709,-2.5183 4.140647,-3.3778 1.443537,-0.71159 2.054855,-0.85034 4.150529,-0.942 7.175103,-0.31381 11.751385,4.29414 11.751385,11.83271 0,3.09872 -0.49594,5.15681 -1.73366,7.19429 -1.167135,1.92133 -2.413651,3.01591 -4.599225,4.03867 -1.411727,0.66062 -2.158598,0.82911 -4.083288,0.92113 -1.317773,0.063 -2.979706,-0.0271 -3.772281,-0.20444 -1.784683,-0.39939 -4.229695,-2.0164 -5.484773,-3.62734 l -0.964279,-1.23768 v 6.26112 6.26113 h -1.060447 -1.06045 z m 15.641995,5.50786 c 1.662146,-0.80463 3.7031,-3.10853 4.411239,-4.97957 0.800052,-2.1139 0.973242,-5.27426 0.409492,-7.47243 -1.263001,-4.92465 -4.47967,-7.32707 -9.50565,-7.09943 -3.688048,0.16704 -6.584482,2.03506 -8.070643,5.20507 -0.641888,1.36915 -0.701506,1.77775 -0.701506,4.80794 0,3.22612 0.02304,3.35847 0.892551,5.12589 1.053922,2.14227 2.362102,3.53385 4.082065,4.34233 2.456529,1.15471 6.178534,1.18551 8.482452,0.0702 z m -58.436233,2.27283 c -4.015698,-1.33304 -6.960435,-4.58629 -7.832641,-8.65324 -0.162133,-0.75601 -0.248927,-2.58048 -0.192874,-4.05439 0.08817,-2.31856 0.211456,-2.91167 0.91448,-4.39962 1.178133,-2.49351 2.917992,-4.29278 5.279744,-5.46002 1.760682,-0.87017 2.234385,-0.98354 4.582178,-1.09659 2.164841,-0.10425 2.940116,-0.0284 4.474925,0.43778 4.301721,1.30661 7.056494,5.14032 7.391178,10.28602 l 0.141973,2.18281 H 40.989841 30.468432 l 0.169096,0.84548 c 0.83666,4.1833 3.072722,6.95787 6.484469,8.0461 1.8154,0.57905 4.7066,0.58454 6.67161,0.0127 0.895081,-0.26049 2.030992,-0.90311 3.053316,-1.72735 l 1.62797,-1.31253 0.603809,0.64272 0.603808,0.64273 -0.908862,0.93992 c -0.499875,0.51695 -1.783316,1.37269 -2.852095,1.90164 -1.85223,0.9167 -2.087645,0.96537 -5.027082,1.03947 -2.051238,0.0517 -3.43823,-0.0399 -4.142185,-0.27359 z m 12.701381,-12.65481 c 0.0734,-0.0734 0.01291,-0.7691 -0.134425,-1.54599 -0.601003,-3.16908 -2.361316,-5.63903 -4.914436,-6.8956 -1.13897,-0.56056 -1.667964,-0.64106 -4.212937,-0.64106 -2.414884,0 -3.118648,0.0963 -4.133428,0.5655 -1.5402,0.71217 -3.247662,2.24305 -4.073496,3.65223 -0.734123,1.25268 -1.563237,4.23463 -1.339516,4.81764 0.131896,0.34371 1.369598,0.38161 9.413322,0.28824 5.093801,-0.0591 9.321515,-0.16756 9.394916,-0.24096 z m 11.24341,12.51113 c -2.136741,-0.69083 -3.430376,-1.42303 -4.987274,-2.82282 l -1.387756,-1.24771 0.587801,-0.62569 c 0.323292,-0.34412 0.666732,-0.62568 0.763201,-0.62568 0.09647,0 0.691566,0.49102 1.322438,1.09115 2.416474,2.29874 6.339456,3.4438 9.955744,2.90595 2.342137,-0.34835 3.685048,-0.98142 4.81725,-2.27093 0.673063,-0.76658 0.834845,-1.18232 0.834845,-2.14539 0,-2.86522 -1.368853,-3.65822 -9.763434,-5.65609 -5.269087,-1.25402 -6.773148,-2.22328 -7.4652,-4.81078 -0.598768,-2.23873 0.262864,-4.20304 2.50439,-5.70939 1.686004,-1.13303 2.735053,-1.42552 5.701678,-1.58971 3.85088,-0.21312 6.82926,0.66458 9.230865,2.72027 1.246756,1.06717 1.346496,1.41472 0.5999,2.09038 -0.496435,0.44927 -0.559877,0.42774 -1.785937,-0.60608 -2.04438,-1.72382 -3.49971,-2.24742 -6.594753,-2.37267 -3.438826,-0.13916 -5.201152,0.33074 -6.743671,1.7981 -1.081399,1.02871 -1.094951,1.06441 -0.971071,2.55824 0.109538,1.32089 0.238996,1.60962 1.010513,2.2537 1.092316,0.91191 2.280856,1.30888 7.000679,2.33821 4.378812,0.95496 7.179042,2.21215 8.445283,3.79157 0.741545,0.92496 0.815133,1.18945 0.815133,2.92974 0,1.61909 -0.106092,2.07332 -0.690554,2.9565 -1.562153,2.36057 -4.64266,3.55772 -9.093303,3.53383 -1.784953,-0.01 -3.127161,-0.16799 -4.106767,-0.4847 z m 50.463153,-0.0177 c -2.48416,-0.79397 -4.11601,-2.22746 -4.81172,-4.22683 -0.95361,-2.74051 -0.0879,-5.90365 2.03713,-7.44299 2.42906,-1.75958 5.57737,-2.3656 12.28953,-2.3656 h 4.3773 l -0.18678,-1.74412 c -0.21955,-2.05014 -0.65148,-3.19464 -1.5087,-3.99765 -2.52194,-2.36242 -8.59124,-2.57696 -12.81293,-0.4529 l -1.81511,0.91323 -0.46176,-0.60043 c -0.25396,-0.33023 -0.43096,-0.71949 -0.39333,-0.86501 0.12645,-0.48899 3.60378,-2.00871 5.54067,-2.42147 1.32752,-0.2829 2.74431,-0.36943 4.59663,-0.28076 3.27133,0.1566 5.35259,0.9677 6.96128,2.71294 1.75308,1.90186 1.87047,2.68465 1.87047,12.47273 v 8.55094 h -0.92604 -0.92605 l -0.008,-1.91823 -0.008,-1.91823 -0.52449,0.7024 c -2.0992,2.81125 -8.89771,4.2856 -13.28934,2.88199 z m 6.28176,-1.3478 c 3.0005,-0.43362 5.899,-2.01081 7.01556,-3.81744 0.45529,-0.73668 0.53327,-1.31668 0.53327,-3.96639 v -3.10353 l -5.75468,0.116 c -6.20991,0.12517 -7.42971,0.34109 -9.31745,1.6493 -1.37709,0.95432 -1.957,2.33933 -1.813,4.33005 0.13973,1.93179 0.9735,3.16037 2.71784,4.00478 1.97798,0.95753 3.87706,1.18342 6.61846,0.78724 z m 22.14853,1.36154 c -3.11885,-1.09234 -5.68825,-3.62495 -6.97375,-6.87388 -0.79167,-2.00086 -0.86855,-7.10865 -0.13849,-9.20086 1.12334,-3.21928 4.05621,-5.99428 7.41283,-7.01382 1.49862,-0.45519 2.28902,-0.53129 4.44154,-0.42764 2.33708,0.11254 2.82464,0.2282 4.53677,1.07623 1.05505,0.52257 2.38596,1.43063 2.95758,2.01789 1.01767,1.04553 1.0292,1.07891 0.5543,1.60366 -0.66281,0.73241 -0.95387,0.67938 -1.95814,-0.35676 -0.47586,-0.49097 -1.54102,-1.23511 -2.367,-1.65365 -1.38784,-0.70322 -1.72264,-0.76037 -4.41221,-0.75315 -3.4349,0.009 -4.65222,0.43973 -6.72442,2.37803 -4.01074,3.75158 -4.11334,11.21974 -0.20891,15.20628 0.61187,0.62474 1.86367,1.49075 2.78178,1.92445 1.45277,0.68628 1.96754,0.78863 3.96875,0.78907 2.95184,5.2e-4 4.80509,-0.67147 6.74814,-2.4473 l 1.40773,-1.28659 0.73978,0.58988 0.73978,0.58987 -1.55132,1.4202 c -2.43281,2.2272 -3.84571,2.76259 -7.50444,2.84366 -2.41621,0.0536 -3.33253,-0.0341 -4.4503,-0.42557 z m 24.15831,0.027 c -3.85031,-1.3314 -6.35652,-4.06712 -7.44157,-8.12303 -0.45451,-1.69898 -0.45479,-5.44317 -5.3e-4,-7.14375 0.85804,-3.21212 3.13105,-5.91495 6.17047,-7.33726 3.05117,-1.42782 7.38492,-1.32718 10.49734,0.24378 3.34899,1.69037 5.71046,5.95487 5.72279,10.33463 l 0.004,1.38906 H 168.2502 c -8.18612,0 -10.45036,0.0717 -10.4479,0.33073 0.007,0.7028 0.73658,3.02874 1.2904,4.11202 1.25775,2.46017 4.15908,4.45243 7.04083,4.83472 1.73684,0.23042 4.63586,-0.14233 6.08193,-0.782 0.63513,-0.28095 1.68065,-0.99555 2.32339,-1.588 l 1.16861,-1.07719 0.61697,0.65674 0.61697,0.65673 -0.64144,0.68957 c -1.05577,1.13499 -2.70322,2.15217 -4.42534,2.73231 -2.11076,0.71107 -6.17208,0.74653 -8.12579,0.071 z m 12.9342,-12.45022 c 0.2061,-0.36871 -0.61421,-3.46914 -1.24964,-4.7231 -0.92878,-1.83286 -2.94753,-3.584 -4.80535,-4.16836 -2.11868,-0.66641 -5.60246,-0.48621 -7.39721,0.38262 -2.58907,1.25335 -4.27553,3.34908 -5.03193,6.2531 -0.72441,2.7812 -1.70775,2.51157 8.99447,2.46625 5.16682,-0.0219 9.43716,-0.11661 9.48966,-0.21051 z m -41.65045,-41.38132 -0.0124,-18.84983 -18.10387,18.25626 -18.103868,18.25625 -39.033723,-39.02571 C 38.310171,96.89599 20.744995,79.274424 20.744995,79.201092 c 0,-0.07333 17.264062,-0.09801 38.364582,-0.05484 l 38.364582,0.07849 V 59.237054 c 0,-10.993225 0.0893,-19.987413 0.198437,-19.987084 0.109141,3.18e-4 17.784294,17.591815 39.278124,39.092189 l 39.07969,39.091591 -20.49271,20.56962 -20.49271,20.56962 z m -19.06644,-3.26386 c 9.3292,-9.39955 16.96218,-17.19814 16.96218,-17.33021 0,-0.14255 -13.93267,-0.24013 -34.285584,-0.24013 -21.652155,0 -34.253092,0.0931 -34.197395,0.25254 0.132459,0.37929 34.099798,34.40788 34.345945,34.40788 0.116964,0 7.845644,-7.69054 17.174854,-17.09008 z m 39.21122,-36.23832 -17.35424,-17.298468 -0.0609,1.248326 c -0.0335,0.68658 -0.093,16.339202 -0.13229,34.783602 l -0.0714,33.53528 17.48654,-17.48514 17.48654,-17.48513 z m -57.625255,-0.18354 c 0.02989,-8.985887 -0.0056,-16.337997 -0.07875,-16.338021 -0.07321,-2.4e-5 -7.444917,7.312499 -16.381584,16.250053 C 65.761463,115.2813 64.886859,116.2061 65.61445,116.31504 c 0.424143,0.0635 7.7714,0.10307 16.327239,0.0879 l 15.55607,-0.0275 z m 37.427665,-0.330773 0.0671,-16.668751 -16.52047,16.522928 c -9.08626,9.087606 -16.46421,16.613976 -16.39543,16.725256 0.0688,0.11128 7.4728,0.1769 16.45341,0.14582 l 16.32836,-0.0565 z m -66.413112,9.328363 c 3.966419,-3.96445 7.211668,-7.2982 7.211668,-7.40833 0,-0.11013 -4.643437,-0.20024 -10.31875,-0.20024 H 55.140827 v 4.25347 4.25348 l 2.973139,3.15486 c 1.635225,1.73517 3.033413,3.15486 3.107081,3.15486 0.07367,0 3.379195,-3.24364 7.345611,-7.2081 z M 116.66404,97.920729 c 8.87797,-8.913151 16.55285,-16.655294 17.05531,-17.20476 l 0.91354,-0.999029 -17.05724,-17.058784 c -9.38149,-9.382332 -17.14689,-17.058784 -17.25645,-17.058784 -0.10956,0 -0.19921,15.418595 -0.19921,34.263544 0,18.844949 0.0905,34.263544 0.20115,34.263544 0.11063,0 7.46493,-7.29258 16.3429,-16.205731 z M 52.935943,81.670877 c -0.05126,-0.05126 -5.944251,-0.06231 -13.095524,-0.02453 l -13.002318,0.06865 13.026884,13.096876 13.026884,13.096877 0.06864,-13.072334 c 0.03775,-7.189783 0.0267,-13.114278 -0.02455,-13.165541 z m 33.809312,8.95862 c 4.809489,-4.846921 8.794138,-8.86528 8.854773,-8.929688 0.06063,-0.06441 -9.017884,-0.117102 -20.174479,-0.117102 H 55.140827 v 3.175001 3.175 h 10.980208 10.980208 v 1.058333 1.058334 H 66.121035 55.140827 v 1.852083 1.852083 h 7.805208 7.805208 v 1.058334 1.058333 h -7.805208 -7.805208 v 1.852084 1.852083 h 10.980208 c 7.942286,0 10.980208,0.08217 10.980208,0.296979 0,0.462336 0.30063,0.174246 9.644012,-9.241857 z"
         id="path1133" />
      <path
         style="fill:#606060;fill-opacity:1;stroke-width:0.264583"
         d="m 79.581793,201.05153 c -0.08177,-0.2131 -0.107799,-7.20802 -0.05784,-15.54427 l 0.09083,-15.15684 h 0.926042 0.926042 l 0.132291,2.51354 c 0.08874,1.68602 0.201719,2.32314 0.34317,1.93521 0.115983,-0.31808 0.915535,-1.23072 1.776788,-2.02808 2.004068,-1.85542 3.843226,-2.58735 6.923267,-2.75528 5.158505,-0.28124 8.946788,2.17503 10.824067,7.0182 0.71171,1.83613 0.97563,5.86908 0.52586,8.03564 -1.152,5.54914 -5.286418,8.95576 -10.868152,8.95498 -3.701952,-5.3e-4 -5.606261,-0.81854 -8.049874,-3.45794 l -1.475126,-1.59331 v 6.23279 6.23279 h -0.934344 c -0.576342,0 -0.991314,-0.14845 -1.083022,-0.38743 z m 15.118635,-9.42927 c 1.766962,-0.65744 3.706667,-2.58913 4.688816,-4.66943 1.952896,-4.13646 0.883756,-10.47926 -2.213202,-13.13015 -1.809091,-1.54851 -3.606549,-2.08526 -6.58105,-1.96521 -2.244997,0.0906 -2.691212,0.19667 -4.176506,0.99268 -2.869054,1.5376 -4.485851,4.06549 -4.823486,7.5416 -0.591979,6.09468 2.35055,10.72698 7.48385,11.78152 1.483239,0.3047 3.979299,0.06 5.621578,-0.55101 z m -57.87513,2.017 c -2.77037,-0.76258 -5.292586,-2.85749 -6.739454,-5.59768 -1.144915,-2.16833 -1.500186,-4.0525 -1.35045,-7.16205 0.110744,-2.29982 0.234957,-2.83853 1.024122,-4.44155 2.072076,-4.20899 5.726321,-6.47815 10.432353,-6.47815 3.284229,0 5.933212,1.01821 7.98381,3.06881 1.859476,1.85948 3.260981,5.50825 3.260981,8.48987 v 1.39962 H 40.962363 30.488065 l 0.187243,1.12448 c 0.59548,3.57612 2.818137,6.43807 5.944686,7.65453 1.110222,0.43196 2.019731,0.56441 3.836458,0.55869 2.94574,-0.009 4.722217,-0.62693 6.644833,-2.31031 l 1.353167,-1.18479 0.631208,0.67675 0.631209,0.67675 -1.190268,1.06035 c -1.451435,1.293 -2.683163,1.94083 -4.678084,2.46044 -1.827128,0.4759 -5.302093,0.478 -7.023219,0.004 z m 12.555574,-13.56955 c -0.22883,-3.61649 -2.968374,-7.14377 -6.230613,-8.0222 -1.745753,-0.47008 -4.953586,-0.3294 -6.60863,0.28983 -1.764071,0.66003 -3.958314,2.54445 -4.737661,4.06871 -0.617692,1.2081 -1.261414,3.41066 -1.26625,4.33261 l -0.0031,0.59865 9.458854,-0.0695 9.458853,-0.0695 z m 11.608471,13.55557 c -1.831035,-0.50953 -3.744131,-1.55481 -5.214622,-2.84919 -1.304639,-1.14839 -1.419752,-1.56274 -0.594691,-2.14064 0.533826,-0.37391 0.650412,-0.32617 1.918229,0.78534 1.577729,1.38321 2.864104,2.04997 5.043469,2.61413 3.849074,0.99638 8.395729,-0.0696 9.883926,-2.31728 0.847619,-1.2802 0.895929,-2.96358 0.116469,-4.05823 -0.834234,-1.17157 -2.426541,-1.8217 -7.645241,-3.12152 -5.649772,-1.40718 -6.84725,-1.88141 -7.964818,-3.15424 -2.216631,-2.52461 -1.496779,-6.14389 1.580692,-7.94741 4.49571,-2.63466 12.472453,-1.56839 15.300068,2.0452 l 0.58669,0.74976 -0.551087,0.55109 -0.551088,0.55108 -1.061124,-0.95866 c -2.06787,-1.86819 -4.217385,-2.60886 -7.52733,-2.59373 -4.821875,0.022 -7.681902,2.06147 -7.027457,5.01116 0.429024,1.93369 1.811596,2.6492 7.65652,3.96243 1.968674,0.44232 4.248105,1.05441 5.0654,1.36019 4.106492,1.53644 5.608367,4.32095 4.154027,7.70166 -0.648997,1.50863 -2.245016,2.82308 -4.332174,3.56789 -1.815819,0.64798 -6.877182,0.78601 -8.835858,0.24097 z m 50.572177,-0.004 c -2.26056,-0.60868 -3.93886,-1.87026 -4.91119,-3.69175 -0.43224,-0.80972 -0.56516,-1.52447 -0.56583,-3.0427 -0.001,-2.21426 0.3349,-3.06976 1.75546,-4.47121 2.16059,-2.13152 4.34941,-2.67523 11.52847,-2.86372 l 5.62239,-0.14763 v -0.8759 c 0,-2.11894 -0.55459,-3.64416 -1.74232,-4.79171 -1.44479,-1.39591 -3.1461,-1.93109 -6.13886,-1.93109 -2.66523,0 -4.96587,0.54363 -6.91374,1.6337 l -1.43346,0.80219 -0.47888,-0.62263 c -0.26339,-0.34245 -0.48153,-0.70993 -0.48477,-0.81661 -0.008,-0.26329 2.42908,-1.47978 4.2215,-2.10723 0.80364,-0.28131 2.55468,-0.58026 3.8912,-0.66433 4.22418,-0.2657 7.33024,0.70698 9.18791,2.87725 1.63271,1.90745 1.74351,2.68957 1.74351,12.30714 v 8.55094 h -0.92604 -0.92605 v -1.89267 -1.89267 l -0.94259,0.97056 c -2.51461,2.5892 -8.24009,3.8135 -12.48671,2.67006 z m 8.08825,-1.93761 c 2.01503,-0.62906 3.58813,-1.66264 4.54868,-2.98864 0.77485,-1.06966 0.79237,-1.16376 0.79237,-4.25467 v -3.16082 l -5.88697,0.10786 c -5.35778,0.0982 -6.02521,0.16218 -7.42462,0.71208 -2.0289,0.79725 -3.20591,1.99564 -3.60856,3.67409 -0.97021,4.04428 2.61138,6.91231 8.13951,6.51788 1.06425,-0.0759 2.61206,-0.34944 3.43959,-0.60778 z m 20.07305,1.84051 c -4.80086,-1.57799 -7.85283,-6.05991 -7.85283,-11.53215 0,-4.34516 1.60482,-7.62656 4.87012,-9.95803 4.39517,-3.13822 11.47054,-2.62849 15.09939,1.08779 0.99617,1.02018 1.03184,1.38085 0.18155,1.83591 -0.34915,0.18686 -0.70462,0.0291 -1.50662,-0.66862 -3.99528,-3.47584 -10.27879,-3.39092 -13.85698,0.18728 -4.59519,4.59519 -3.47971,13.65291 2.04396,16.597 2.10425,1.12155 4.3733,1.50012 6.63288,1.10663 2.1026,-0.36615 3.45474,-1.04236 5.02928,-2.51516 1.20617,-1.12822 1.22748,-1.13598 1.8145,-0.66064 0.3267,0.26455 0.594,0.60121 0.594,0.74815 0,0.55903 -3.07798,2.98092 -4.48603,3.5298 -2.10603,0.82096 -6.43007,0.94318 -8.56322,0.24204 z m 24.16175,0.0101 c -2.78532,-0.8955 -4.39883,-2.09816 -5.87123,-4.37625 -1.59613,-2.46952 -2.14984,-4.65146 -2.00632,-7.90601 0.18774,-4.25735 1.63943,-7.11281 4.70486,-9.25441 3.05714,-2.13581 7.61245,-2.64106 11.24248,-1.24695 2.22412,0.85416 4.8455,3.48108 5.6643,5.67625 0.70206,1.88218 1.08258,3.75799 1.08258,5.33668 v 1.15451 h -10.48486 -10.48486 l 0.17022,1.12448 c 0.26894,1.77675 1.88212,4.80675 3.12596,5.87143 3.80228,3.25461 9.77648,3.2593 13.38992,0.0105 l 1.29822,-1.16721 0.61563,0.65529 0.61562,0.65531 -0.86631,0.8938 c -1.075,1.10911 -3.08753,2.22241 -4.88053,2.69981 -1.91093,0.50881 -5.53331,0.4458 -7.31568,-0.12724 z m 12.75236,-13.26201 c -0.32216,-3.73217 -2.65909,-6.9208 -5.93643,-8.09997 -1.7395,-0.62587 -5.02724,-0.53993 -6.94627,0.18157 -3.04501,1.14484 -5.28672,4.11919 -5.82876,7.73373 l -0.18741,1.24975 9.4894,-0.0695 9.4894,-0.0695 z m -41.60361,-40.57509 -0.0117,-18.82388 -18.12741,18.23223 -18.127412,18.23223 -39.010917,-38.9976 C 38.299907,96.891511 20.744993,79.28107 20.744991,79.205878 c -3e-6,-0.07519 17.290183,-0.136712 38.422635,-0.136712 h 38.42264 l 0.0081,-19.909872 c 0.0044,-10.950429 0.04657,-19.909883 0.0936,-19.909897 0.04702,-1.4e-5 17.696274,17.59146 39.220564,39.092164 l 39.13506,39.092189 -20.5013,20.54367 -20.50129,20.54367 z m -18.60015,-3.69308 16.89203,-16.98288 -17.24348,-0.068 c -9.48391,-0.0374 -25.07915,-0.0374 -34.656093,0 l -17.412623,0.068 17.400828,17.4625 c 15.940621,15.99712 17.431307,17.42225 17.764071,16.98288 0.199787,-0.26379 7.964657,-8.12192 17.255267,-17.4625 z m 38.79498,-1.1837 17.40504,-17.38668 -17.36201,-17.26406 c -9.54911,-9.495237 -17.44091,-17.263931 -17.53733,-17.263767 -0.0964,1.67e-4 -0.2182,15.686652 -0.27061,34.858857 -0.0532,19.45163 0.005,34.76657 0.1323,34.65044 0.12517,-0.11447 8.05984,-8.03213 17.63261,-17.59479 z m -57.578888,-34.783 c 0.02355,-8.985916 -0.03563,-16.338026 -0.131492,-16.338026 -0.24542,0 -32.58736,32.365506 -32.58736,32.611106 0,0.1107 7.352109,0.17059 16.33802,0.1331 l 16.33802,-0.0682 z M 135.04499,99.773606 V 83.039503 l -16.52115,16.519561 c -9.08663,9.085756 -16.46147,16.616106 -16.38855,16.734106 0.0729,0.118 7.50745,0.21454 16.52115,0.21454 h 16.38855 z m -66.478332,9.261424 c 3.966419,-3.96445 7.211668,-7.2982 7.211668,-7.40833 0,-0.11013 -4.643437,-0.20024 -10.31875,-0.20024 H 55.140827 v 4.32816 4.32816 l 2.942108,3.08018 c 1.618157,1.69409 3.016345,3.08017 3.107082,3.08017 0.09074,0 3.410225,-3.24364 7.376641,-7.2081 z M 117.64527,96.994687 134.77214,79.862916 117.7157,62.731144 c -9.38105,-9.422475 -17.17779,-17.131772 -17.32608,-17.131772 -0.18173,0 -0.26963,11.170252 -0.26963,34.263544 0,18.844949 0.0896,34.263544 0.1992,34.263544 0.10956,0 7.9063,-7.7093 17.32608,-17.131773 z M 53.085435,94.704936 53.014418,81.582707 H 39.922414 c -7.200601,0 -13.092003,0.05621 -13.092003,0.124918 0,0.24093 26.026768,26.304325 26.175594,26.212435 0.08274,-0.0511 0.118488,-5.9979 0.07943,-13.215124 z m 33.474662,-3.686041 c 4.984088,-4.996442 9.061978,-9.163582 9.061978,-9.260314 0,-0.09673 -9.108281,-0.175874 -20.240624,-0.175874 H 55.140827 v 3.175001 3.175 h 10.980208 10.980208 v 1.058333 1.058334 H 66.121035 55.140827 v 1.848088 1.848085 l 7.739062,0.07014 7.739062,0.07014 v 0.897456 0.897456 L 62.879889,95.63957 55.140827,95.5984 v 1.987987 1.987984 h 10.847916 c 7.055556,0 10.847916,0.0925 10.847916,0.264583 0,0.145521 0.148829,0.264536 0.33073,0.264486 0.181901,-6e-5 4.408619,-4.088107 9.392708,-9.084549 z"
         id="path1131" />
      <path
         style="fill:#494949;fill-opacity:1;stroke-width:0.264583"
         d="m 79.747076,185.96084 v -15.47813 h 0.944819 0.944819 l -0.08492,2.38186 c -0.04671,1.31002 0.0044,2.38158 0.113514,2.38125 0.109141,-2.6e-4 0.198438,-0.0982 0.198438,-0.21757 0,-0.48621 2.045525,-2.55919 3.346505,-3.39141 3.970274,-2.53976 9.760571,-2.14918 13.230801,0.89248 4.857848,4.25789 5.125428,13.75924 0.517263,18.3674 -2.313696,2.3137 -5.006326,3.26869 -8.647128,3.06685 -3.14893,-0.17456 -5.028125,-1.04128 -7.130497,-3.28872 l -1.581528,-1.69066 v 6.22738 6.22739 h -0.926041 -0.926042 z m 15.010714,5.68848 c 3.899154,-1.72478 5.84241,-5.37863 5.55822,-10.45098 -0.30045,-5.36258 -2.975225,-8.63207 -7.676291,-9.38307 -1.96351,-0.31367 -4.671746,0.0857 -6.303759,0.92969 -1.571649,0.81273 -3.548393,3.05092 -4.2017,4.75741 -0.85081,2.22239 -0.875112,6.47647 -0.04907,8.59076 1.647819,4.21769 5.267002,6.54105 9.675007,6.21095 1.004663,-0.0752 2.35358,-0.36988 2.997597,-0.65476 z m -57.824425,1.968 c -0.773532,-0.20816 -1.930931,-0.68586 -2.571998,-1.06155 -1.379683,-0.80855 -3.64023,-3.20762 -4.369666,-4.63743 -1.354557,-2.65515 -1.718399,-7.07791 -0.819792,-9.96514 1.059249,-3.40337 3.974236,-6.42325 7.148866,-7.40611 2.03189,-0.62907 6.042163,-0.62043 7.879394,0.017 4.167357,1.4458 6.76116,5.173 7.155111,10.28166 l 0.159811,2.07241 H 40.994793 30.474494 l 0.187286,1.25678 c 0.469105,3.14791 2.99762,6.39355 5.796795,7.44085 3.968229,1.48471 8.001029,0.80431 10.861664,-1.83253 l 1.12264,-1.03481 0.616969,0.65673 0.616971,0.65674 -0.626171,0.66652 c -2.567495,2.73298 -7.938457,4.01348 -12.117283,2.88892 z m 12.520873,-13.67575 c -0.258884,-1.99788 -1.608865,-4.79739 -2.857272,-5.92525 -0.577459,-0.5217 -1.719056,-1.25746 -2.536886,-1.63502 -1.258156,-0.58084 -1.853373,-0.68528 -3.868211,-0.67873 -2.089704,0.007 -2.59181,0.10618 -4.101041,0.81179 -0.945886,0.44223 -2.182574,1.26735 -2.748198,1.8336 -1.265427,1.26683 -2.458911,3.7418 -2.697361,5.59361 l -0.178864,1.38906 h 9.583914 9.583915 z m 10.912969,13.4202 c -1.346808,-0.444 -2.607944,-1.10426 -3.677737,-1.92546 -2.163974,-1.66114 -2.391688,-2.05233 -1.581621,-2.71704 l 0.628481,-0.51572 1.108006,1.02132 c 2.526625,2.32896 5.624227,3.38797 9.144407,3.12628 3.551402,-0.26401 5.704141,-1.40552 6.479516,-3.4358 0.356396,-0.93321 0.38662,-1.35886 0.157028,-2.2115 -0.521058,-1.93505 -1.876245,-2.63824 -8.045836,-4.17483 -6.235174,-1.55293 -7.858305,-2.31385 -8.764519,-4.10881 -1.265301,-2.5062 -0.296116,-5.43584 2.302,-6.95844 4.347678,-2.5479 11.585455,-1.75259 14.860052,1.63289 l 1.035116,1.07017 -0.638241,0.52254 -0.638241,0.52254 -0.926042,-0.89054 c -3.532679,-3.39727 -11.133669,-3.62528 -13.834927,-0.41501 -0.9585,1.13911 -1.126429,2.19305 -0.539983,3.38898 0.86319,1.76029 2.049034,2.29144 8.146473,3.64885 5.26275,1.1716 7.584244,2.3712 8.583523,4.43544 1.020556,2.10818 0.582755,4.20436 -1.260483,6.03515 -1.796286,1.78415 -3.627192,2.40578 -7.444603,2.52759 -2.70719,0.0864 -3.268723,0.0226 -5.092369,-0.5786 z m 51.394453,0.29025 c -3.4468,-0.95908 -5.30309,-2.87741 -5.70323,-5.89385 -0.27186,-2.04936 0.39671,-3.9859 1.83323,-5.31004 2.40402,-2.21595 4.20348,-2.66325 11.60906,-2.88574 l 5.4901,-0.16495 v -0.87247 c 0,-4.55975 -2.54533,-6.71934 -7.91955,-6.71934 -2.86693,0 -5.0661,0.53306 -7.14916,1.7329 l -1.17809,0.67857 -0.46967,-0.61042 c -0.25832,-0.33574 -0.47232,-0.6943 -0.47556,-0.79681 -0.003,-0.10251 0.90512,-0.61869 2.01857,-1.14707 2.7622,-1.31078 5.19332,-1.79524 8.16201,-1.62648 3.1422,0.17862 5.13772,0.92871 6.744,2.53499 1.97475,1.97475 2.11954,2.83966 2.11954,12.66145 0,7.79272 -0.0263,8.24139 -0.49189,8.38917 -1.06559,0.3382 -1.3602,-0.0738 -1.3602,-1.90226 v -1.72518 l -1.16432,1.07323 c -1.45811,1.34405 -2.85255,2.06193 -4.97891,2.56325 -1.99,0.46918 -5.43861,0.47942 -7.08593,0.0211 z m 6.68877,-1.59822 c 2.29406,-0.48611 4.20659,-1.53175 5.50995,-3.01244 l 1.03044,-1.17065 v -3.27004 -3.27004 l -5.22552,0.004 c -5.76142,0.005 -7.45106,0.26045 -9.4483,1.4309 -2.01278,1.17957 -2.86154,3.20835 -2.2666,5.41781 0.91285,3.39005 5.17725,4.97703 10.40003,3.87032 z m 21.88623,1.60036 c -0.65485,-0.18104 -1.66688,-0.55187 -2.24896,-0.82407 -1.5374,-0.71895 -4.15281,-3.43995 -4.94962,-5.14946 -1.7638,-3.7841 -1.67043,-8.44641 0.23943,-11.95545 0.82937,-1.52382 2.99656,-3.64198 4.52309,-4.42076 4.38453,-2.23682 10.09365,-1.58429 13.62838,1.55766 l 1.27046,1.12928 -0.57684,0.61401 -0.57684,0.61402 -1.22278,-1.0168 c -3.40236,-2.82923 -7.57937,-3.30771 -11.60076,-1.32886 -5.73301,2.82112 -6.87983,11.98281 -2.09845,16.76418 3.66082,3.66083 10.02226,3.6569 13.79361,-0.009 l 1.14434,-1.1122 0.62132,0.66533 0.62132,0.66533 -1.36198,1.25577 c -1.46598,1.35166 -3.10104,2.23468 -4.91091,2.65216 -1.53691,0.35452 -4.83759,0.30123 -6.29481,-0.10162 z m 23.81891,-0.0477 c -3.01213,-0.80943 -5.49293,-2.87553 -6.83883,-5.6956 -1.05691,-2.21455 -1.35531,-3.58438 -1.3632,-6.25787 -0.0147,-4.98857 2.79354,-9.26898 7.18645,-10.95372 1.99028,-0.7633 5.19863,-0.91894 7.34743,-0.35644 2.1815,0.57107 2.96783,0.98594 4.44479,2.34512 2.24545,2.06637 3.41104,4.65224 3.68703,8.17964 l 0.16043,2.05052 h -10.49026 c -11.92106,0 -10.84651,-0.25603 -10.07003,2.39937 0.86588,2.96111 2.9511,5.31846 5.6442,6.38079 1.14737,0.45259 2.03611,0.58397 3.98974,0.58978 2.26836,0.007 2.6813,-0.0721 4.23334,-0.80855 0.94588,-0.44882 2.14596,-1.24858 2.66683,-1.77725 l 0.94705,-0.96122 0.64045,0.68659 0.64046,0.68659 -1.19027,1.06035 c -0.65465,0.58318 -1.63328,1.28635 -2.17474,1.56258 -2.49315,1.27191 -6.56904,1.64642 -9.46087,0.86932 z m 12.68967,-12.60658 c -0.0113,-0.95659 -0.89274,-3.88777 -1.51027,-5.02238 -2.2129,-4.06582 -7.96625,-5.56602 -12.47927,-3.25399 -2.54298,1.30277 -4.55564,4.24138 -4.94365,7.21804 l -0.18107,1.38906 h 9.55909 c 7.47297,0 9.55823,-0.0722 9.55517,-0.33073 z m -41.80025,-41.25509 c 0,-10.30655 -0.0435,-18.73918 -0.0967,-18.73918 -0.12992,0 -33.65417,33.67656 -35.02832,35.18746 L 98.839004,157.3816 59.786841,118.35767 20.734676,79.333749 59.170563,79.201457 97.60645,79.069166 97.667908,59.384444 c 0.0338,-10.826597 0.09992,-19.723189 0.146936,-19.770203 0.04702,-0.04702 17.657256,17.452068 39.133866,38.886851 l 39.04838,38.972338 -20.47605,20.50528 -20.47605,20.50528 z m -19.16634,-3.13529 c 9.45008,-9.46244 17.22165,-17.32057 17.27016,-17.4625 0.057,-0.16682 -12.13826,-0.25806 -34.494374,-0.25806 -32.89406,0 -34.565309,0.0226 -34.229063,0.46302 0.287713,0.37685 34.158575,34.46198 34.24534,34.46198 0.01429,0 7.757867,-7.742 17.207937,-17.20444 z m 39.28533,-1.64712 17.44404,-17.52865 -17.37853,-17.37969 C 145.6713,90.495227 137.7554,82.733425 137.6386,82.805609 c -0.23492,0.145187 -0.30029,69.685431 -0.0655,69.685431 0.0808,0 7.99667,-7.88789 17.59089,-17.52864 z m -57.489365,-34.925 c 0.03749,-8.985916 -0.02168,-16.338026 -0.131493,-16.338026 -0.262091,0 -32.612712,32.349036 -32.612712,32.611106 0,0.1107 7.352109,0.17059 16.33802,0.1331 l 16.33802,-0.0682 z M 135.04499,99.773606 V 83.039503 l -16.53646,16.534872 c -9.09505,9.094175 -16.53645,16.624525 -16.53645,16.734105 0,0.10958 7.4414,0.19923 16.53645,0.19923 h 16.53646 z m -66.478332,9.261424 c 3.966419,-3.96445 7.211668,-7.29958 7.211668,-7.4114 0,-0.11182 -4.66013,-0.17217 -10.355847,-0.1341 l -10.355844,0.0692 0.04992,4.36563 0.04992,4.36562 2.959425,2.97656 c 1.627685,1.63711 3.020102,2.97657 3.094262,2.97657 0.07416,0 3.380087,-3.24364 7.346503,-7.2081 z M 118.13597,63.02935 C 108.94603,53.806665 101.13291,46.046913 100.77349,45.785457 l -0.6535,-0.475373 v 34.606373 34.606373 l 17.36248,-17.362479 17.36248,-17.362478 z m -64.903046,31.694382 -0.07647,-13.008733 -13.16302,-0.06862 c -7.239662,-0.03774 -13.163021,0.01931 -13.163021,0.126775 0,0.366146 26.025715,26.239446 26.252828,26.099086 0.124386,-0.0769 0.191744,-5.9937 0.149685,-13.148511 z M 95.622075,81.782563 c 0,-0.109921 -9.108281,-0.199856 -20.240624,-0.199856 H 55.140827 v 3.284324 3.28432 l 10.996736,-0.118676 10.996739,-0.118673 -0.08268,0.970621 -0.08267,0.970624 -10.913554,0.03092 -10.913551,0.03092 -5.3e-4,1.885156 -5.29e-4,1.885157 0.826823,0.165364 c 0.454753,0.09095 3.967096,0.165365 7.805208,0.165365 h 6.978385 v 0.79375 0.79375 H 62.945995 55.140787 V 97.59 99.574375 h 10.819609 c 9.937813,0 10.833671,0.03665 10.992159,0.449655 0.133707,0.34843 2.254491,-1.631647 9.421016,-8.795976 5.086693,-5.085102 9.248504,-9.335572 9.248504,-9.445491 z"
         id="path1129" />
      <path
         style="fill:#333333;fill-opacity:1;stroke-width:0.264583"
         d="m 79.747076,185.96084 v -15.47813 h 0.958405 0.958406 l -0.11385,2.38125 c -0.06262,1.30969 -0.04741,2.37398 0.03378,2.36509 0.0812,-0.009 0.506923,-0.51491 0.946057,-1.12448 0.933445,-1.29574 3.647011,-3.20151 5.23544,-3.67692 1.833393,-0.54872 5.874115,-0.39135 7.657438,0.29823 1.783128,0.68951 4.133149,2.72341 5.148458,4.4559 0.9887,1.6871 1.66545,4.36617 1.66545,6.59312 0,7.63469 -4.909665,12.65639 -11.906253,12.17796 -3.459559,-0.23656 -6.078527,-1.63131 -7.972441,-4.24579 l -0.758809,-1.0475 v 6.3897 6.38969 h -0.926041 -0.926042 z m 15.5024,5.43175 c 2.009669,-0.98936 3.562879,-2.66126 4.39547,-4.73138 0.512464,-1.27415 0.601294,-1.98103 0.603354,-4.80141 0.002,-3.0939 -0.0471,-3.4147 -0.765457,-4.97192 -0.966163,-2.09445 -3.021999,-4.04591 -4.982194,-4.72924 -0.969851,-0.3381 -2.07931,-0.47652 -3.657647,-0.45633 -1.961118,0.0251 -2.500371,0.14105 -4.013234,0.86307 -3.194809,1.52474 -4.989685,4.24148 -5.368155,8.12528 -0.544298,5.58549 2.395701,10.26484 7.214071,11.48204 1.85521,0.46865 4.730215,0.12748 6.573792,-0.78011 z m -58.072631,2.21933 c -7.75127,-2.08443 -11.069369,-11.84909 -6.389479,-18.80325 2.400585,-3.56719 6.592726,-5.31484 11.154117,-4.65001 2.693674,0.3926 4.118561,1.03423 5.809751,2.61614 2.166657,2.02666 3.667287,5.70353 3.680833,9.01885 l 0.0046,1.12448 H 40.955577 30.474494 l 0.181482,1.25677 c 0.44724,3.09717 2.663523,6.06432 5.505148,7.37026 1.464484,0.67304 1.946259,0.75833 4.295328,0.76045 2.345197,0.002 2.826216,-0.0817 4.233334,-0.73762 0.873125,-0.40701 2.020858,-1.16186 2.550517,-1.67744 0.948658,-0.92345 0.973314,-0.93068 1.653645,-0.48491 0.379847,0.24888 0.690629,0.50046 0.690629,0.55905 0,0.0586 -0.434329,0.52833 -0.965176,1.04385 -2.617404,2.54185 -7.521902,3.65771 -11.442556,2.60338 z m 12.330717,-13.53806 c -0.676979,-5.6449 -5.431916,-9.2829 -10.907129,-8.34503 -4.448684,0.76203 -7.465671,3.91184 -7.990377,8.34216 l -0.149186,1.25964 h 9.598707 9.598708 z m 11.788677,13.54889 c -0.761868,-0.20518 -1.952493,-0.66128 -2.645833,-1.01356 -1.464088,-0.74389 -4.038746,-2.73459 -4.038746,-3.12272 0,-0.1462 0.267301,-0.48226 0.594,-0.7468 0.587026,-0.47535 0.608338,-0.46759 1.814505,0.66064 2.396979,2.2421 5.321199,3.19985 9.04036,2.96095 4.306188,-0.27662 6.675093,-2.01156 6.675093,-4.88873 0,-1.3364 -0.07171,-1.5019 -0.997498,-2.30218 -1.198642,-1.03615 -3.04905,-1.74006 -6.940002,-2.64005 -5.951304,-1.37657 -7.568639,-2.07773 -8.727992,-3.78388 -1.38139,-2.03289 -0.671905,-5.4344 1.422614,-6.82049 4.524515,-2.99418 11.962722,-2.42795 15.484244,1.17875 l 1.035116,1.06015 -0.631468,0.51133 -0.631467,0.51133 -1.276342,-1.14754 c -1.894563,-1.70338 -3.714893,-2.31732 -6.939288,-2.34042 -3.16003,-0.0226 -4.918387,0.48768 -6.298425,1.82795 -2.457106,2.38632 -1.103185,5.22888 3.061253,6.42714 1.052841,0.30294 2.62863,0.68822 3.501755,0.85618 6.226447,1.19776 9.379064,3.11402 9.805897,5.96036 0.341673,2.27843 -1.155663,4.85571 -3.508925,6.0397 -2.303383,1.1589 -7.050008,1.55219 -9.798851,0.81189 z m 50.914811,0.13564 c -4.44092,-1.12289 -6.71495,-4.13857 -6.03436,-8.00237 0.49072,-2.78586 2.45625,-4.58203 6.00814,-5.49045 1.70733,-0.43666 2.93203,-0.52244 7.45915,-0.52244 h 5.41643 l -0.13063,-1.91823 c -0.16644,-2.44417 -0.78283,-3.71069 -2.29265,-4.71075 -1.64664,-1.09069 -2.95052,-1.41276 -5.7161,-1.41193 -2.65159,7.9e-4 -5.32133,0.69869 -7.09108,1.85368 l -1.00566,0.65632 -0.50689,-0.60798 c -0.27879,-0.33439 -0.51085,-0.6912 -0.51569,-0.79291 -0.0131,-0.27518 3.06848,-1.68463 4.88599,-2.23475 2.15092,-0.65103 6.58119,-0.65196 8.59896,-0.002 2.21509,0.71375 3.78101,1.98598 4.66813,3.79263 l 0.75583,1.53931 0.0823,8.7974 0.0823,8.79739 h -0.94223 -0.94224 v -1.77348 -1.77349 l -0.99218,0.93253 c -1.30863,1.22995 -2.18991,1.75805 -3.99495,2.39395 -1.72007,0.60597 -6.199,0.88038 -7.79264,0.47742 z m 5.89532,-1.57884 c 2.2421,-0.42521 4.37138,-1.52498 5.6976,-2.94283 l 1.20271,-1.28578 -0.0741,-3.3763 -0.0741,-3.3763 -2.51354,-0.0784 c -1.38245,-0.0431 -4.11012,0.0389 -6.06148,0.18218 -3.21492,0.23608 -3.71162,0.34277 -5.29167,1.13669 -1.8934,0.95136 -2.79969,2.00596 -3.10013,3.60744 -0.20591,1.09759 0.23274,2.99102 0.8986,3.8788 1.52147,2.02856 5.46944,2.98396 9.31606,2.25446 z m 22.25797,1.43237 c -4.14984,-1.11595 -7.05206,-4.21276 -8.09545,-8.6382 -1.07702,-4.56809 0.21011,-9.13569 3.38251,-12.00337 3.49587,-3.16007 8.75218,-3.85352 13.25118,-1.74818 1.68236,0.78727 3.60491,2.26607 3.60491,2.77285 0,0.15537 -0.18993,0.49235 -0.42207,0.74886 -0.39899,0.44089 -0.4968,0.40551 -1.78912,-0.6471 -2.20167,-1.79328 -3.84991,-2.38752 -6.65235,-2.39837 -2.11684,-0.008 -2.57361,0.0811 -4.11358,0.80376 -3.03482,1.42425 -4.60695,3.26904 -5.40855,6.34658 -1.37561,5.28133 0.86876,10.67881 5.28027,12.69847 1.93005,0.8836 4.84183,1.10191 6.90041,0.51734 1.65428,-0.46977 4.04696,-1.92714 4.85918,-2.95971 l 0.47947,-0.60955 0.58356,0.62117 0.58357,0.62118 -0.78563,0.88972 c -1.09755,1.24298 -3.48234,2.61631 -5.27638,3.03851 -1.94094,0.45676 -4.56524,0.43458 -6.38193,-0.054 z m 24.18169,0.0454 c -4.19593,-1.04139 -7.35498,-4.4037 -8.29991,-8.83396 -1.1968,-5.61116 1.20044,-11.22008 5.78637,-13.53862 5.7187,-2.89124 12.48696,-0.89099 15.21739,4.49726 0.7758,1.53096 1.43973,4.28977 1.44677,6.01167 l 0.005,1.12448 h -10.487 -10.48701 l 0.16932,1.23532 c 0.78603,5.73476 6.66295,9.42722 12.60261,7.91821 1.70038,-0.43199 4.28638,-1.94282 4.83841,-2.82677 0.25246,-0.40425 0.33994,-0.38579 0.96081,0.20278 l 0.68307,0.64752 -1.15099,1.035 c -1.28712,1.15742 -3.34778,2.21674 -5.0963,2.61984 -1.55055,0.35746 -4.55566,0.31242 -6.18813,-0.0927 z m 12.30313,-12.80025 c 0,-0.82647 -0.7711,-3.47184 -1.33312,-4.5735 -1.76366,-3.45706 -5.74746,-5.27569 -9.87598,-4.50844 -1.97486,0.36702 -3.51348,1.13749 -4.92316,2.46532 -1.32545,1.24848 -2.60691,3.84331 -2.83055,5.7316 l -0.1609,1.3586 h 9.56185 c 9.01134,0 9.56186,-0.0273 9.56186,-0.47358 z m -41.80417,-41.1983 c 0,-10.25922 -0.065,-18.65312 -0.14452,-18.65312 -0.15943,0 -33.96279,34.00022 -35.199398,35.4044 L 98.929367,157.2863 59.969473,118.40698 C 38.541531,97.023352 21.009578,79.454264 21.009578,79.364557 c 0,-0.0897 17.263309,-0.1631 38.362907,-0.1631 h 38.36291 l 0.06782,-19.833541 0.06782,-19.833541 39.026035,38.991545 39.02604,38.99155 -6.55305,6.57272 c -16.6484,16.69837 -34.18778,34.22169 -34.25307,34.22169 -0.0396,0 -0.072,-8.39391 -0.072,-18.65313 z m -19.06948,-3.07105 c 9.39681,-9.47444 17.12479,-17.33257 17.1733,-17.4625 0.0515,-0.13784 -14.30265,-0.23624 -34.461979,-0.23624 -19.002594,0 -34.550171,0.089 -34.550171,0.19769 0,0.20369 34.436996,34.72731 34.640175,34.72731 0.06246,0 7.801865,-7.75182 17.198675,-17.22626 z m 39.30678,-1.56586 17.45092,-17.4692 -17.4543,-17.4558 c -9.59986,-9.60069 -17.54393,-17.455799 -17.65348,-17.455799 -0.10955,0 -0.19919,15.716251 -0.19919,34.924999 0,19.20875 0.0912,34.925 0.20257,34.925 0.11141,0 8.05548,-7.86114 17.65348,-17.4692 z m -57.543548,-34.8742 c 0,-8.998041 -0.0557,-16.415767 -0.12377,-16.483839 -0.144883,-0.144886 -32.684562,32.358729 -32.684562,32.648339 0,0.10756 7.381875,0.19557 16.404166,0.19557 H 97.738742 Z M 135.04499,99.787055 V 83.066403 l -0.94332,0.911797 c -3.49756,3.380674 -32.01461,32.06199 -32.0855,32.27031 -0.057,0.16739 5.77697,0.2592 16.47032,0.2592 h 16.5585 z m -66.52497,9.328885 c 3.913237,-3.91996 7.157608,-7.2551 7.209718,-7.41143 0.06672,-0.20016 -2.983973,-0.26375 -10.313228,-0.215 l -10.407975,0.0692 v 4.29567 4.29567 l 3.038393,3.04652 c 1.671116,1.67558 3.110331,3.04652 3.198257,3.04652 0.08792,0 3.3616,-3.20724 7.274835,-7.12719 z M 117.7149,62.534863 c -9.45613,-9.460041 -17.28341,-17.200074 -17.39394,-17.200074 -0.11053,0 -0.20097,15.567309 -0.20097,34.594021 v 34.59402 L 117.51394,97.128884 134.90788,79.734937 Z M 53.288744,94.811875 V 81.582707 H 40.059577 c -7.276041,0 -13.229166,0.08885 -13.229166,0.197446 0,0.259445 25.999468,26.260887 26.258892,26.260887 0.109694,0 0.199441,-5.95312 0.199441,-13.229165 z m 33.337498,-3.836459 9.389914,-9.392709 H 75.597269 55.178382 l -0.08492,2.315105 c -0.04671,1.273307 -0.04797,2.761588 -0.0028,3.307292 l 0.08212,0.992187 H 66.13702 77.101255 v 0.790848 0.790847 l -11.046354,0.06905 -11.046354,0.06905 0.01389,1.984375 0.01389,1.984375 7.725167,0.07014 7.725177,0.07014 v 0.785757 0.785757 l -7.739063,0.07014 -7.739062,0.07014 -0.08699,1.918229 -0.08699,1.918229 h 11.001052 c 9.602324,0 11.001051,0.05046 11.001051,0.396875 0,0.218277 0.08993,0.396877 0.199835,0.396877 0.10991,0 4.425296,-4.226721 9.589748,-9.392711 z"
         id="path1127" />
    </g>
  </g>
</svg>
